<?xml version="1.0" encoding="utf-8"?>
<!-- Generator: Adobe Illustrator 23.1.0, SVG Export Plug-In . SVG Version: 6.00 Build 0)  -->
<svg version="1.1" id="Слой_1" xmlns="http://www.w3.org/2000/svg" xmlns:xlink="http://www.w3.org/1999/xlink" x="0px" y="0px"
	 viewBox="0 0 1536 1536" style="enable-background:new 0 0 1536 1536;" xml:space="preserve">
<path d="M1536,1305.6v153.6c0,42-29,76.8-64,76.8H64c-35,0-64-34.8-64-76.8v-153.6c0-42,29-76.8,64-76.8h1408
	C1507,1228.8,1536,1263.6,1536,1305.6z M1536,691.2v153.6c0,42-29,76.8-64,76.8H64c-35,0-64-34.8-64-76.8V691.2
	c0-42,29-76.8,64-76.8h1408C1507,614.4,1536,649.2,1536,691.2z M1536,76.8v153.6c0,42-29,76.8-64,76.8H64c-35,0-64-34.8-64-76.8
	V76.8C0,34.8,29,0,64,0h1408C1507,0,1536,34.8,1536,76.8z"/>
</svg>
