<?xml version="1.0" encoding="UTF-8" standalone="no"?>
<svg
   width="2000"
   height="1536"
   version="1.1"
   id="svg4"
   sodipodi:docname="fast-forward.svg"
   inkscape:version="1.2.2 (b0a8486541, 2022-12-01)"
   xmlns:inkscape="http://www.inkscape.org/namespaces/inkscape"
   xmlns:sodipodi="http://sodipodi.sourceforge.net/DTD/sodipodi-0.dtd"
   xmlns="http://www.w3.org/2000/svg"
   xmlns:svg="http://www.w3.org/2000/svg">
  <defs
     id="defs8" />
  <sodipodi:namedview
     id="namedview6"
     pagecolor="#ffffff"
     bordercolor="#000000"
     borderopacity="0.25"
     inkscape:showpageshadow="2"
     inkscape:pageopacity="0.0"
     inkscape:pagecheckerboard="0"
     inkscape:deskcolor="#d1d1d1"
     showgrid="false"
     inkscape:zoom="0.15364583"
     inkscape:cx="608.54239"
     inkscape:cy="768.00002"
     inkscape:window-width="1680"
     inkscape:window-height="997"
     inkscape:window-x="0"
     inkscape:window-y="0"
     inkscape:window-maximized="1"
     inkscape:current-layer="svg4" />
  <path
     d="m 149,1524.2126 c -25,25 -45,16 -45,-19 V 33.212584 c 0,-35.0000002 20,-44 45,-19 L 859,724.21258 c 6,6 10,12 13,19 V 33.212584 c 0,-35.0000002 20,-44 45,-19 l 710,709.999996 c 6,6 10,12 13,19 V 65.212584 c 0,-35 29,-64.0000002 64,-64.0000002 h 128 c 35,0 64,29.0000002 64,64.0000002 V 1473.2126 c 0,35 -29,64 -64,64 h -128 c -35,0 -64,-29 -64,-64 V 795.21258 c -3,7 -7,13 -13,19 L 917,1524.2126 c -25,25 -45,16 -45,-19 V 795.21258 c -3,7 -7,13 -13,19 z"
     id="path2" />
</svg>
