<?xml version="1.0" encoding="utf-8"?>
<svg version="1.1" id="Слой_1" xmlns="http://www.w3.org/2000/svg" xmlns:xlink="http://www.w3.org/1999/xlink" x="0px" y="0px"
	 viewBox="0 0 1536 1536" style="enable-background:new 0 0 1536 1536;" xml:space="preserve">
<path d="M1316.7,884.9v574.5c0,41.9-27.6,76.6-61,76.6H889.9v-459.6H646.1V1536H280.2c-33.3,0-61-34.7-61-76.6V884.9
	c0-2.4,1-4.8,1-7.2L768,310.3l547.8,567.4C1316.7,880.1,1316.7,882.5,1316.7,884.9z M1529.2,802.3l-59.1,88.6
	c-4.8,7.2-12.4,12-20,13.2h-2.9c-7.6,0-14.3-2.4-20-8.4L768,205L108.7,895.6c-6.7,6-14.3,9.6-22.9,8.4c-7.6-1.2-15.2-6-20-13.2
	L6.8,802.3c-10.5-15.6-8.6-40.7,3.8-53.9l685-717c40-41.9,104.8-41.9,144.8,0l232.5,244.2V42.2c0-21.5,13.3-38.3,30.5-38.3h182.9
	c17.1,0,30.5,16.8,30.5,38.3v488.4l208.6,217.8C1537.8,761.6,1539.7,786.7,1529.2,802.3z"/>
</svg>
