<?xml version="1.0" encoding="utf-8"?>
<!-- Generator: Adobe Illustrator 23.1.0, SVG Export Plug-In . SVG Version: 6.00 Build 0)  -->
<svg version="1.1" id="Слой_1" xmlns="http://www.w3.org/2000/svg" xmlns:xlink="http://www.w3.org/1999/xlink" x="0px" y="0px"
	 viewBox="0 0 512 512" style="enable-background:new 0 0 512 512;" xml:space="preserve">
<path class="st0" d="M403.8,34.4c12-5,25.7-2.2,34.9,6.9l64,64c6,6,9.4,14.1,9.4,22.6s-3.4,16.6-9.4,22.6l-64,64
	c-9.2,9.2-22.9,11.9-34.9,6.9S384,204.8,384,191.8V160h-32c-10.1,0-19.6,4.7-25.6,12.8L284,229.3L244,176l31.2-41.6
	C293.3,110.2,321.8,96,352,96h32V64C384,51.1,391.8,39.4,403.8,34.4z M164,282.7l40,53.3l-31.2,41.6C154.7,401.8,126.2,416,96,416
	H32c-17.7,0-32-14.3-32-32s14.3-32,32-32h64c10.1,0,19.6-4.7,25.6-12.8L164,282.7z M438.6,470.7c-9.2,9.2-22.9,11.9-34.9,6.9
	S383.9,461,383.9,448v-32H352c-30.2,0-58.7-14.2-76.8-38.4L121.6,172.8c-6-8.1-15.5-12.8-25.6-12.8H32c-17.7,0-32-14.3-32-32
	s14.3-32,32-32h64c30.2,0,58.7,14.2,76.8,38.4l153.6,204.8c6,8.1,15.5,12.8,25.6,12.8h32v-32c0-12.9,7.8-24.6,19.8-29.6
	s25.7-2.2,34.9,6.9l64,64c6,6,9.4,14.1,9.4,22.6s-3.4,16.6-9.4,22.6l-64,64L438.6,470.7z"/>
</svg>
